inDegrees=yes
name=ik_S40_A09_T02
DataType=double
version=3
OpenSimVersion=4.3-2021-08-27-4bc7ad9
endheader
time	pelvis_tilt	pelvis_list	pelvis_rotation	pelvis_tx	pelvis_ty	pelvis_tz	hip_flexion_r	hip_adduction_r	hip_rotation_r	knee_angle_r	knee_angle_r_beta	ankle_angle_r	subtalar_angle_r	mtp_angle_r	hip_flexion_l	hip_adduction_l	hip_rotation_l	knee_angle_l	knee_angle_l_beta	ankle_angle_l	subtalar_angle_l	mtp_angle_l	lumbar_extension	lumbar_bending	lumbar_rotation	arm_flex_r	arm_add_r	arm_rot_r	elbow_flex_r	pro_sup_r	wrist_flex_r	wrist_dev_r	arm_flex_l	arm_add_l	arm_rot_l	elbow_flex_l	pro_sup_l	wrist_flex_l	wrist_dev_l
0	0	0	0	0	0.9399999999999999	0	0	0	0	0	0	0	0	0	0	0	0	0	0	0	0	0	0	0	0	0	0	0	0	89.99999999963507	0	0	0	0	0	0	89.99999999869995	0	0
0.02	-8.080737918906399	-1.22351236140109	27.4900897217222	0	0.9399999999999999	0	2.595214941769366	-1.226248827997783	-0.8741866591370843	4.027457867539231	0.07029240027390923	0	0	0	2.595214941769366	-1.226248827997783	-0.8741866591370843	4.027457867539231	0.07029240027390923	0	0	0	-4.077698266207219	-3.224368689464674	6.991382619412083	21.1537478206752	0.2363956838248766	5.701874624709978	49.03769548434956	148.3073990440489	0	0	20.39900870919596	0.5740902673257436	-3.102786614792554	41.02049975023976	133.1947919724159	0	0
0.04	-8.087956901163885	-1.230831809324342	27.50134216190444	0	0.9399999999999999	0	2.726653800700611	-1.296599318975558	-0.91975642692302	4.213859132954441	0.07354571608528848	0	0	0	2.726653800700611	-1.296599318975558	-0.91975642692302	4.213859132954441	0.07354571608528848	0	0	0	-4.092738763255923	-3.218990315424813	6.980156619316513	21.13950709822161	0.2275250132707235	5.749368181189401	49.04148056831193	148.2799430004001	0	0	20.37685897496847	0.5846852397710878	-3.101747440599449	40.9923703626516	133.1313042029266	0	0
0.06	-7.677031164979464	0.4550023111812773	25.64891726972191	0	0.9399999999999999	0	44.20522239133229	-11.54714299454771	-11.29756765711288	53.9663417074966	0.9418903480521542	0	0	0	44.20522239133229	-11.54714299454771	-11.29756765711288	53.9663417074966	0.9418903480521542	0	0	0	-5.110428487561258	-4.682552486487151	8.71689309508541	21.14483422949885	0.2210088264900092	5.758890423943821	49.06448997349525	148.2119633767241	0	0	20.38358311572555	0.5677231297629656	-3.110524443499115	40.9749637188928	133.071114496562	0	0
0.08	-7.678807425759222	0.4455323679866959	25.63906547057233	0	0.9399999999999999	0	44.20614432264701	-11.54206112473097	-11.29457076158285	53.96717225881687	0.9419048439072997	0	0	0	44.20614432264701	-11.54206112473097	-11.29457076158285	53.96717225881687	0.9419048439072997	0	0	0	-5.117496703728864	-4.683197388582274	8.709093095484517	21.14703269688634	0.2246493138019311	5.736048706860655	49.0715295925937	148.1887945109219	0	0	20.38495697349245	0.564536654185499	-3.102426716239473	40.9842817117779	133.0521321652656	0	0
0.1	-7.681390700880956	0.4443392960201292	25.62941066720397	0	0.9399999999999999	0	44.20699972235745	-11.53720499847141	-11.29174915352067	53.96794000123577	0.9419182435403168	0	0	0	44.20699972235745	-11.53720499847141	-11.29174915352067	53.96794000123577	0.9419182435403168	0	0	0	-5.121601907431338	-4.676772670269579	8.703943875069134	21.16054851662716	0.2090966960275562	5.722786581775671	49.07752228581952	148.1667047552034	0	0	20.37158254610046	0.5626730933217913	-3.070511096374058	40.98810537712738	133.0338371048642	0	0
0.12	-7.678656769354265	0.4386255965956908	25.61988284589625	0	0.9399999999999999	0	44.20766449333896	-11.53363252869901	-11.28962203031394	53.9685421836511	0.9419287536061619	0	0	0	44.20766449333896	-11.53363252869901	-11.28962203031394	53.9685421836511	0.9419287536061619	0	0	0	-5.122593226270101	-4.678206389693078	8.700566668509181	21.15251586480914	0.2025226299907664	5.731265632537246	49.07178490961063	148.1623601860557	0	0	20.38592962840309	0.5389991508145147	-3.028588457421665	40.98422496995612	133.0297755641221	0	0
0.14	-7.684329647801134	0.4341028912058709	25.61940161599487	0	0.9399999999999999	0	44.20864664749631	-11.52827507418315	-11.28644638053093	53.96942825349296	0.9419442184423049	0	0	0	44.20864664749631	-11.52827507418315	-11.28644638053093	53.96942825349296	0.9419442184423049	0	0	0	-5.131202451024297	-4.672619064376508	8.697434924581239	21.16053223345027	0.1902802986830232	5.719818102660142	49.07049683308586	148.1351991736786	0	0	20.3972877232339	0.5340525266514727	-3.011994800816476	40.97948761265251	133.0184307792759	0	0
0.16	-7.670160631320973	0.4241370433835321	25.64105101926416	0	0.9399999999999999	0	44.21275886503303	-11.51435460229668	-11.27566580255292	53.97332278891866	0.942012190908319	0	0	0	44.21275886503303	-11.51435460229668	-11.27566580255292	53.97332278891866	0.942012190908319	0	0	0	-5.12980434800315	-4.656468539280318	8.682639157158601	21.15605404294079	0.2083054821710003	5.762232948985563	49.0901430955611	148.0732341085164	0	0	20.36957473811237	0.538444998287114	-2.948603262958581	40.98903733809539	132.959355778149	0	0
0.18	-7.664914098741606	0.4287640417989174	25.62902180643262	0	0.9399999999999999	0	44.21343228410642	-11.51300403055472	-11.27420227752902	53.97398563864135	0.942023759818426	0	0	0	44.21343228410642	-11.51300403055472	-11.27420227752902	53.97398563864135	0.942023759818426	0	0	0	-5.124261064043113	-4.649387712071674	8.682186760978158	21.13643840614499	0.2154804985088429	5.796774479073218	49.06505281202173	148.1077543800835	0	-4.310455369189608e-35	20.36293476746897	0.5496215209309596	-2.915322478559934	40.96654329199289	132.9801714913895	0	-4.310455369189608e-35
0.2	-7.663345497885865	0.4266950713128121	25.62877832489899	0	0.9399999999999999	0	44.21426789388467	-11.50984112342857	-11.27192862667713	53.97477285798939	0.9420374993879845	0	0	0	44.21426789388467	-11.50984112342857	-11.27192862667713	53.97477285798939	0.9420374993879845	0	0	0	-5.12515814961381	-4.645803278292441	8.68275038293063	21.12733081136679	0.2220931963329039	5.808378844172177	49.06221162614512	148.1129402666016	0	0	20.35461425412259	0.544261828595214	-2.875311987126518	40.96178836644244	132.9892326849025	0	0
0.22	-7.66297337345556	0.4307021584311128	25.62109948180391	0	0.9399999999999999	0	44.21487249367203	-11.50611042723648	-11.26985186113652	53.97531040636626	0.9420468813770498	0	0	0	44.21487249367203	-11.50611042723648	-11.26985186113652	53.97531040636626	0.9420468813770498	0	0	0	-5.123975991639546	-4.637843388731541	8.678553645261145	21.13044464620391	0.2256182850133336	5.829779080431693	49.06236886856802	148.0982142822917	0	2.866768171736584e-51	20.34864236982008	0.5582480103520974	-2.849859422215325	40.95969619518326	132.9783607593379	0	2.866768171736584e-51
0.24	-7.662511734536085	0.4331014791146502	25.61632537717983	0	0.9399999999999999	0	44.21526857162234	-11.50483857704939	-11.26885544319613	53.97569099046756	0.9420535238226982	0	0	0	44.21526857162234	-11.50483857704939	-11.26885544319613	53.97569099046756	0.9420535238226982	0	0	0	-5.123236627626834	-4.632959700590435	8.679392261121	21.1206875811376	0.2169548409353052	5.799399627775716	49.04813255043327	148.1264555206379	0	2.281581759861478e-67	20.34235592938604	0.5509556224659625	-2.859854949689213	40.93284605821276	132.9949336604724	0	2.281581759861478e-67
0.26	-7.660746667090584	0.4280768070757732	25.61464516531756	0	0.9399999999999999	0	44.21637061835543	-11.49784107264978	-11.26499427153651	53.97666346572769	0.9420704967178817	0	0	0	44.21637061835543	-11.49784107264978	-11.26499427153651	53.97666346572769	0.9420704967178817	0	0	0	-5.125432560328348	-4.630309686488697	8.674530139552383	21.14126716252694	0.2032827670418586	5.801408542448547	49.07326283421335	148.0669763631053	0	0	20.33334914013978	0.5504472906858723	-2.836991497204126	40.95917984498453	132.9642557983397	0	0
0.28	-7.666662913580232	0.4377530598149857	25.62119338889404	0	0.9399999999999999	0	44.21696418896801	-11.49437944507245	-11.2630108149884	53.97719519089681	0.9420797770727986	0	0	0	44.21696418896801	-11.49437944507245	-11.2630108149884	53.97719519089681	0.9420797770727986	0	0	0	-5.12755723866091	-4.615291065253715	8.679968904070403	21.13254523676564	0.1821205817712713	5.775914112968571	49.0721910468642	148.0623564488542	0	0	20.32770433454325	0.5466129652233295	-2.811590097067882	40.95331712702295	132.9540670345339	0	0
